<?xml version="1.0" standalone="no"?>
<!DOCTYPE svg PUBLIC "-//W3C//DTD SVG 20010904//EN"
 "http://www.w3.org/TR/2001/REC-SVG-20010904/DTD/svg10.dtd">
<svg version="1.0" xmlns="http://www.w3.org/2000/svg"
 width="1707.000000pt" height="1707.000000pt" viewBox="0 0 1707.000000 1707.000000"
 preserveAspectRatio="xMidYMid meet">
<metadata>
Created by potrace 1.11, written by Peter Selinger 2001-2013
</metadata>
<g transform="translate(0.000000,1707.000000) scale(0.100000,-0.100000)"
fill="#000000" stroke="none">
<path d="M5927 16215 c-116 -40 -191 -146 -191 -270 0 -93 43 -166 185 -320
105 -113 260 -335 322 -460 91 -182 109 -248 113 -410 5 -193 -36 -322 -163
-513 -58 -87 -299 -394 -315 -400 -4 -2 -8 -10 -8 -18 0 -8 -3 -14 -8 -14 -4
0 -48 -51 -97 -112 -49 -62 -92 -115 -96 -118 -3 -3 -32 -41 -65 -85 -32 -44
-62 -82 -65 -85 -12 -10 -135 -196 -162 -245 -91 -164 -166 -365 -183 -498 -3
-23 -9 -60 -13 -82 -17 -103 -2 -314 34 -475 33 -146 49 -189 133 -365 136
-281 395 -637 527 -723 36 -24 50 -26 130 -26 72 0 98 4 130 21 88 47 144 129
149 217 7 114 -5 140 -145 317 -191 241 -324 485 -375 684 -53 205 -21 417 92
624 32 58 114 188 136 216 5 6 34 44 65 85 32 41 60 77 63 80 3 3 43 52 89
110 47 58 99 121 115 141 52 59 110 131 125 153 8 12 18 23 21 26 17 13 167
219 212 292 71 114 161 306 192 409 33 108 53 257 50 380 -2 91 -10 197 -19
229 -2 8 -6 31 -9 50 -10 68 -66 221 -125 343 -138 284 -495 749 -627 814 -74
38 -158 48 -217 28z"/>
<path d="M7335 16147 c-118 -39 -195 -140 -200 -262 -2 -79 30 -153 100 -231
47 -52 79 -90 135 -159 36 -44 68 -82 71 -85 10 -9 127 -178 143 -207 9 -15
30 -53 48 -83 60 -106 108 -243 116 -330 35 -358 -34 -499 -553 -1125 -263
-318 -325 -403 -418 -570 -90 -164 -166 -368 -183 -493 -3 -26 -9 -68 -13 -94
-8 -51 -6 -233 3 -313 35 -297 188 -632 445 -975 106 -142 224 -266 270 -287
20 -8 66 -15 102 -16 149 -2 271 113 286 268 7 77 -34 154 -185 344 -82 104
-216 312 -258 401 -26 57 -58 148 -78 225 -69 271 -18 492 182 784 84 124 330
434 550 696 54 64 149 197 192 271 82 140 175 347 197 439 92 399 17 769 -239
1179 -153 244 -409 541 -518 600 -60 33 -138 42 -195 23z"/>
<path d="M8865 16143 c-66 -24 -105 -53 -139 -102 -88 -126 -71 -256 49 -387
139 -152 332 -406 368 -484 4 -8 19 -35 33 -60 106 -184 149 -414 110 -582
-54 -230 -154 -388 -531 -837 -360 -429 -491 -637 -586 -936 -74 -231 -70
-573 9 -821 41 -124 130 -320 197 -429 187 -304 362 -518 463 -565 174 -82
383 55 385 252 0 81 -33 147 -138 278 -109 136 -215 298 -279 425 -201 406
-168 712 120 1104 68 94 82 111 294 370 319 388 378 470 476 656 115 219 172
442 168 660 -1 61 -5 126 -8 145 -4 19 -11 61 -17 92 -45 257 -212 583 -451
879 -257 320 -372 395 -523 342z"/>
<path d="M4407 10653 c-1 -1 -634 -3 -1407 -4 -773 -2 -1446 -6 -1495 -9 -99
-6 -146 -25 -222 -87 -50 -40 -107 -123 -133 -190 -16 -44 -17 -85 -15 -468 2
-370 6 -523 20 -825 6 -118 15 -260 20 -315 2 -27 7 -90 10 -140 3 -49 7 -108
10 -130 2 -22 7 -65 10 -95 2 -30 7 -80 11 -110 3 -30 7 -75 10 -100 2 -25 6
-61 9 -80 2 -19 7 -60 10 -90 3 -30 8 -66 10 -80 3 -14 7 -45 10 -70 3 -25 7
-61 10 -80 3 -19 7 -53 10 -75 3 -22 10 -65 15 -95 5 -30 12 -73 15 -95 5 -38
7 -52 21 -135 66 -386 171 -844 269 -1174 91 -306 253 -741 375 -1003 118
-254 322 -647 380 -733 9 -14 34 -54 55 -90 58 -97 125 -201 220 -340 47 -69
85 -129 85 -135 0 -6 -358 -10 -1037 -11 -1041 -2 -1288 -6 -1370 -24 -109
-25 -214 -113 -269 -226 -48 -98 -48 -257 0 -353 25 -49 86 -129 143 -188 42
-43 219 -236 244 -264 11 -13 49 -55 83 -94 35 -38 103 -115 152 -170 48 -55
93 -105 98 -111 6 -6 45 -49 86 -95 410 -454 696 -685 1115 -900 516 -264
1052 -411 2135 -585 l225 -36 2835 -2 c1559 0 2860 2 2890 7 30 4 93 14 140
22 47 8 103 17 125 20 22 4 76 13 120 21 44 8 98 17 120 20 22 3 56 10 75 14
19 5 52 12 74 16 53 8 75 12 94 18 9 3 33 8 52 10 19 3 67 12 105 21 39 9 81
19 95 21 174 32 744 192 865 244 11 4 70 27 130 51 153 59 227 92 400 180 124
62 337 187 380 221 6 5 51 38 100 75 164 121 253 201 490 438 173 174 234 237
430 449 129 138 146 157 327 348 230 241 254 285 246 452 -4 74 -10 102 -34
151 -38 78 -128 166 -215 209 l-68 34 -628 1 c-1649 5 -1841 6 -1835 16 3 6
42 59 85 119 111 152 268 393 372 571 165 281 268 481 411 803 13 28 27 52 31
52 5 0 14 -14 22 -31 16 -37 185 -292 220 -333 277 -322 511 -497 838 -627
396 -158 880 -166 1334 -23 503 158 1015 539 1370 1019 24 33 46 62 50 65 11
10 137 207 192 300 206 353 373 802 442 1190 4 19 11 60 16 90 11 58 13 71 23
165 15 136 23 573 11 680 -2 22 -6 67 -9 100 -8 103 -30 228 -61 355 -2 8 -8
37 -14 64 -27 115 -126 389 -177 488 -8 15 -15 31 -15 35 -1 5 -9 19 -18 33
-9 14 -30 50 -46 80 -46 88 -147 237 -235 345 -31 38 -235 242 -275 275 -260
214 -552 350 -870 405 -16 3 -37 8 -45 10 -28 7 -195 18 -285 19 -363 0 -710
-89 -1055 -271 -90 -47 -275 -162 -313 -193 -7 -6 -30 -24 -52 -41 -22 -16
-57 -44 -78 -62 -21 -18 -48 -40 -60 -50 -12 -10 -58 -53 -102 -95 -44 -43
-85 -81 -92 -85 -9 -6 -11 107 -7 484 l4 491 -42 80 c-50 94 -106 149 -205
201 l-69 36 -4263 3 c-2344 2 -4263 2 -4264 1z m10738 -1357 c221 -24 418
-122 598 -299 234 -229 404 -595 452 -967 23 -182 24 -611 1 -725 -2 -11 -7
-40 -10 -65 -65 -431 -274 -924 -544 -1283 -92 -122 -309 -341 -434 -437 -204
-158 -449 -276 -670 -321 -96 -20 -365 -19 -466 2 -134 27 -272 91 -397 184
-312 233 -517 632 -579 1130 -13 105 -15 524 -2 600 2 17 7 50 11 75 36 253
91 460 185 695 133 333 335 641 585 891 244 246 503 406 789 488 49 15 118 29
155 32 36 4 67 7 68 8 5 4 209 -3 258 -8z"/>
</g>
</svg>
